<svg width="120" height="40" viewBox="0 0 120 40" fill="none" xmlns="http://www.w3.org/2000/svg">
  <!-- Background circle with gradient -->
  <defs>
    <linearGradient id="logoGradient" x1="0%" y1="0%" x2="100%" y2="100%">
      <stop offset="0%" style="stop-color:#6366f1;stop-opacity:1" />
      <stop offset="50%" style="stop-color:#8b5cf6;stop-opacity:1" />
      <stop offset="100%" style="stop-color:#d946ef;stop-opacity:1" />
    </linearGradient>
    <linearGradient id="textGradient" x1="0%" y1="0%" x2="100%" y2="0%">
      <stop offset="0%" style="stop-color:#ffffff;stop-opacity:1" />
      <stop offset="100%" style="stop-color:#e5e7eb;stop-opacity:1" />
    </linearGradient>
  </defs>
  
  <!-- Main logo icon -->
  <circle cx="20" cy="20" r="16" fill="url(#logoGradient)" />
  
  <!-- AI brain/neural network icon -->
  <path d="M12 16C12 14.5 13.5 13 15 13C16.5 13 18 14.5 18 16C18 17.5 16.5 19 15 19C13.5 19 12 17.5 12 16Z" fill="white" opacity="0.9"/>
  <path d="M22 16C22 14.5 23.5 13 25 13C26.5 13 28 14.5 28 16C28 17.5 26.5 19 25 19C23.5 19 22 17.5 22 16Z" fill="white" opacity="0.9"/>
  <path d="M17 20C17 18.5 18.5 17 20 17C21.5 17 23 18.5 23 20C23 21.5 21.5 23 20 23C18.5 23 17 21.5 17 20Z" fill="white" opacity="0.9"/>
  
  <!-- Connection lines -->
  <path d="M15 16L20 20" stroke="white" stroke-width="1.5" opacity="0.7"/>
  <path d="M25 16L20 20" stroke="white" stroke-width="1.5" opacity="0.7"/>
  
  <!-- Enzura AI text -->
  <text x="45" y="18" font-family="Inter, system-ui, sans-serif" font-size="16" font-weight="700" fill="url(#textGradient)">Enzura</text>
  <text x="45" y="32" font-family="Inter, system-ui, sans-serif" font-size="12" font-weight="500" fill="url(#textGradient)" opacity="0.8">AI</text>
</svg>

